<svg width="24" height="24" viewBox="0 0 24 24" fill="none" xmlns="http://www.w3.org/2000/svg">
<g clip-path="url('#clip0_61_6150')">
<path d="M4 3H22C22.2652 3 22.5196 3.10536 22.7071 3.29289C22.8946 3.48043 23 3.73478 23 4V20C23 20.2652 22.8946 20.5196 22.7071 20.7071C22.5196 20.8946 22.2652 21 22 21H4C3.73478 21 3.48043 20.8946 3.29289 20.7071C3.10536 20.5196 3 20.2652 3 20V4C3 3.73478 3.10536 3.48043 3.29289 3.29289C3.48043 3.10536 3.73478 3 4 3ZM13.06 11.683L6.648 6.238L5.353 7.762L13.073 14.317L20.654 7.757L19.346 6.244L13.061 11.683H13.06Z" fill="#1A1A1A"></path>
</g>
<defs>
<clipPath id="clip0_61_6150">
<rect width="24" height="24" fill="white"></rect>
</clipPath>
</defs>
</svg>
