<svg width="24" height="24" viewBox="0 0 24 24" fill="none" xmlns="http://www.w3.org/2000/svg">
<path d="M17.9471 7.49201C15.7037 7.49201 14.0105 8.97349 13.3333 11.3015C12.2751 9.65074 11.4285 7.78831 10.9629 6.17984H8.59255V12.4021C8.59255 13.6296 7.57668 14.6454 6.34917 14.6454C5.12166 14.6454 4.10578 13.6296 4.10578 12.4021V6.22217H1.82007V12.4444C1.82007 15.0264 3.89414 17.1005 6.43382 17.1005C8.97351 17.1005 11.0476 15.0264 11.0476 12.4444V11.3862C11.5132 12.3174 12.1058 13.3333 12.7407 14.2222L11.2592 21.1216H13.6719L14.6878 16.0846C15.619 16.6772 16.6772 17.0158 17.9471 17.0158C20.5291 17.0158 22.6455 14.8994 22.6455 12.1904C22.6455 9.60841 20.5291 7.49201 17.9471 7.49201ZM17.9471 14.6454C17.0158 14.6454 16.0423 14.2222 15.2804 13.5872L15.5344 12.656V12.6137C15.7037 11.5978 16.2539 9.90471 17.9894 9.90471C19.3015 9.90471 20.3597 10.9629 20.3597 12.2751C20.3174 13.5872 19.1746 14.6454 17.9471 14.6454Z" fill="#1A1A1A"></path>
</svg>
